<svg xmlns="http://www.w3.org/2000/svg" xmlns:xlink="http://www.w3.org/1999/xlink" version="1.1" x="0px" y="0px" viewBox="0 0 100 125" enable-background="new 0 0 100 100" xml:space="preserve"><path d="M89.243,80.511l-27.16-22.102c2.969-4.504,4.704-9.891,4.704-15.678c0-15.753-12.815-28.568-28.568-28.568  S9.65,26.978,9.65,42.73s12.816,28.568,28.568,28.568c7.811,0,14.896-3.153,20.059-8.251l27.179,22.117  c0.557,0.452,1.226,0.673,1.892,0.673c0.872,0,1.736-0.378,2.329-1.106C90.722,83.446,90.528,81.557,89.243,80.511z M38.219,65.299  c-12.444,0-22.568-10.124-22.568-22.568s10.124-22.568,22.568-22.568c12.444,0,22.568,10.124,22.568,22.568  S50.663,65.299,38.219,65.299z"/><text x="0" y="115" fill="#000000" font-size="5px" font-weight="bold" font-family="'Helvetica Neue', Helvetica, Arial-Unicode, Arial, Sans-serif">Created by Iconarts</text><text x="0" y="120" fill="#000000" font-size="5px" font-weight="bold" font-family="'Helvetica Neue', Helvetica, Arial-Unicode, Arial, Sans-serif">from the Noun Project</text></svg>